<?xml version="1.0" encoding="utf-8"?>
<svg xmlns="http://www.w3.org/2000/svg" xmlns:xlink="http://www.w3.org/1999/xlink" style="margin: auto; background: white; display: block; shape-rendering: auto;" width="290px" height="290px" viewBox="0 0 100 100" preserveAspectRatio="xMidYMid">
<g transform="rotate(0 50 50)">
  <rect x="46" y="29.5" rx="4" ry="5.5" width="8" height="11" fill="#ff0505">
    <animate attributeName="opacity" values="1;0" keyTimes="0;1" dur="0.53475935828877s" begin="-0.481283422459893s" repeatCount="indefinite"></animate>
  </rect>
</g><g transform="rotate(36 50 50)">
  <rect x="46" y="29.5" rx="4" ry="5.5" width="8" height="11" fill="#ff0505">
    <animate attributeName="opacity" values="1;0" keyTimes="0;1" dur="0.53475935828877s" begin="-0.427807486631016s" repeatCount="indefinite"></animate>
  </rect>
</g><g transform="rotate(72 50 50)">
  <rect x="46" y="29.5" rx="4" ry="5.5" width="8" height="11" fill="#ff0505">
    <animate attributeName="opacity" values="1;0" keyTimes="0;1" dur="0.53475935828877s" begin="-0.374331550802139s" repeatCount="indefinite"></animate>
  </rect>
</g><g transform="rotate(108 50 50)">
  <rect x="46" y="29.5" rx="4" ry="5.5" width="8" height="11" fill="#ff0505">
    <animate attributeName="opacity" values="1;0" keyTimes="0;1" dur="0.53475935828877s" begin="-0.320855614973262s" repeatCount="indefinite"></animate>
  </rect>
</g><g transform="rotate(144 50 50)">
  <rect x="46" y="29.5" rx="4" ry="5.5" width="8" height="11" fill="#ff0505">
    <animate attributeName="opacity" values="1;0" keyTimes="0;1" dur="0.53475935828877s" begin="-0.267379679144385s" repeatCount="indefinite"></animate>
  </rect>
</g><g transform="rotate(180 50 50)">
  <rect x="46" y="29.5" rx="4" ry="5.5" width="8" height="11" fill="#ff0505">
    <animate attributeName="opacity" values="1;0" keyTimes="0;1" dur="0.53475935828877s" begin="-0.213903743315508s" repeatCount="indefinite"></animate>
  </rect>
</g><g transform="rotate(216 50 50)">
  <rect x="46" y="29.5" rx="4" ry="5.5" width="8" height="11" fill="#ff0505">
    <animate attributeName="opacity" values="1;0" keyTimes="0;1" dur="0.53475935828877s" begin="-0.160427807486631s" repeatCount="indefinite"></animate>
  </rect>
</g><g transform="rotate(252 50 50)">
  <rect x="46" y="29.5" rx="4" ry="5.5" width="8" height="11" fill="#ff0505">
    <animate attributeName="opacity" values="1;0" keyTimes="0;1" dur="0.53475935828877s" begin="-0.106951871657754s" repeatCount="indefinite"></animate>
  </rect>
</g><g transform="rotate(288 50 50)">
  <rect x="46" y="29.5" rx="4" ry="5.5" width="8" height="11" fill="#ff0505">
    <animate attributeName="opacity" values="1;0" keyTimes="0;1" dur="0.53475935828877s" begin="-0.053475935828877s" repeatCount="indefinite"></animate>
  </rect>
</g><g transform="rotate(324 50 50)">
  <rect x="46" y="29.5" rx="4" ry="5.5" width="8" height="11" fill="#ff0505">
    <animate attributeName="opacity" values="1;0" keyTimes="0;1" dur="0.53475935828877s" begin="0s" repeatCount="indefinite"></animate>
  </rect>
</g>
<!-- [ldio] generated by https://loading.io/ --></svg>